<?xml version="1.0" encoding="utf-8"?>
<!-- Generator: Adobe Illustrator 16.0.0, SVG Export Plug-In . SVG Version: 6.00 Build 0)  -->
<!DOCTYPE svg PUBLIC "-//W3C//DTD SVG 1.1//EN" "http://www.w3.org/Graphics/SVG/1.1/DTD/svg11.dtd">
<svg version="1.1" id="Layer_1" xmlns="http://www.w3.org/2000/svg" xmlns:xlink="http://www.w3.org/1999/xlink" x="0px" y="0px"
	 width="10px" height="10px" viewBox="0 0 10 10" enable-background="new 0 0 10 10" xml:space="preserve">
<rect x="-1" y="1.021" fill="none" width="12" height="7.958"/>
<g enable-background="new    ">
	<path fill="#333333" d="M2.203,4.925C2.32,5.059,2.4,5.188,2.442,5.313c0.042,0.126,0.063,0.328,0.063,0.608v1.592
		c0,0.134,0.025,0.229,0.076,0.286C2.632,7.855,2.726,7.89,2.862,7.9C2.999,7.912,3.111,7.965,3.199,8.06s0.132,0.21,0.132,0.347
		c0,0.144-0.05,0.264-0.149,0.361S2.957,8.914,2.804,8.914c-0.218,0-0.428-0.058-0.63-0.174C1.972,8.625,1.796,8.438,1.646,8.177
		C1.552,8.008,1.505,7.811,1.505,7.586V5.823c0-0.14-0.023-0.236-0.068-0.288S1.293,5.448,1.144,5.43
		c-0.15-0.018-0.265-0.07-0.344-0.158S0.68,5.068,0.68,4.925c0-0.146,0.04-0.264,0.12-0.352s0.195-0.141,0.347-0.159
		c0.151-0.018,0.243-0.048,0.276-0.09c0.055-0.065,0.083-0.166,0.083-0.303v-1.67c0-0.358,0.13-0.668,0.391-0.93
		s0.562-0.393,0.903-0.393c0.156,0,0.284,0.049,0.383,0.146s0.149,0.218,0.149,0.361c0,0.133-0.044,0.248-0.132,0.342
		S2.998,2.026,2.857,2.039S2.629,2.082,2.594,2.127C2.535,2.195,2.506,2.296,2.506,2.43v1.592c0,0.225-0.022,0.398-0.066,0.52
		C2.396,4.664,2.317,4.791,2.203,4.925z"/>
	<path fill="#333333" d="M7.774,4.925C7.66,4.791,7.581,4.662,7.538,4.537C7.493,4.411,7.472,4.239,7.472,4.021V2.43
		c0-0.133-0.025-0.229-0.076-0.286c-0.05-0.057-0.144-0.092-0.28-0.105S6.866,1.972,6.778,1.878S6.646,1.669,6.646,1.536
		c0-0.143,0.05-0.264,0.149-0.361c0.099-0.098,0.225-0.146,0.378-0.146c0.218,0,0.428,0.058,0.63,0.173s0.378,0.304,0.527,0.564
		C8.426,1.935,8.473,2.13,8.473,2.352v1.67c0,0.14,0.022,0.236,0.068,0.291C8.587,4.365,8.685,4.4,8.834,4.417
		s0.265,0.068,0.345,0.156c0.079,0.088,0.119,0.205,0.119,0.352c0,0.144-0.04,0.259-0.119,0.347C9.099,5.359,8.983,5.412,8.831,5.43
		c-0.15,0.019-0.243,0.049-0.275,0.091C8.5,5.586,8.473,5.687,8.473,5.823v1.763c0,0.361-0.13,0.673-0.391,0.936
		C7.821,8.783,7.521,8.914,7.179,8.914c-0.156,0-0.284-0.049-0.383-0.146C6.696,8.67,6.646,8.55,6.646,8.406
		c0-0.134,0.044-0.247,0.132-0.342S6.98,7.916,7.12,7.903s0.228-0.042,0.264-0.088c0.059-0.068,0.088-0.169,0.088-0.303V5.921
		c0-0.28,0.021-0.481,0.061-0.605C7.573,5.191,7.654,5.062,7.774,4.925z"/>
</g>
</svg>
