<?xml version="1.0" encoding="utf-8"?>
<!-- Generator: Adobe Illustrator 16.0.0, SVG Export Plug-In . SVG Version: 6.00 Build 0)  -->
<!DOCTYPE svg PUBLIC "-//W3C//DTD SVG 1.1//EN" "http://www.w3.org/Graphics/SVG/1.1/DTD/svg11.dtd">
<svg version="1.1" id="Layer_1" xmlns="http://www.w3.org/2000/svg" xmlns:xlink="http://www.w3.org/1999/xlink" x="0px" y="0px"
	 width="200px" height="200px" viewBox="0 0 200 200" enable-background="new 0 0 200 200" xml:space="preserve">
<path d="M-328.174,167.976c-2.081-1.85-5.564-2.773-10.45-2.773h-12.28V45.959h12.182c4.886,0,8.369-0.941,10.449-2.823
	c2.079-1.881,3.12-4.308,3.12-7.28c0-3.035-1.041-5.496-3.12-7.377c-2.08-1.882-5.563-2.823-10.449-2.823h-32.487v159.85h32.586
	c4.886,0,8.369-0.941,10.45-2.823c2.079-1.881,3.119-4.343,3.119-7.378C-325.055,172.267-326.095,169.823-328.174,167.976z"/>
<path d="M-261.369,25.656c-4.887,0-8.369,0.941-10.448,2.823c-2.081,1.881-3.12,4.342-3.12,7.377c0,2.972,1.039,5.398,3.12,7.28
	c2.079,1.882,5.562,2.823,10.448,2.823h12.282v119.243h-12.184c-4.887,0-8.369,0.941-10.448,2.823
	c-2.08,1.881-3.12,4.309-3.12,7.279c0,3.035,1.04,5.497,3.12,7.378c2.079,1.882,5.562,2.823,10.448,2.823h32.487V25.656H-261.369z"
	/>
<path d="M312.38,62.22V36.643c0-8.438,1.056-17.402,12.659-17.402c11.601,0,12.657,8.964,12.657,17.402V62.22h7.911
	c9.229,0,17.402,1.846,17.402,12.657c0,10.81-8.174,12.655-17.402,12.655h-7.911v29.269h7.911c9.229,0,17.402,1.846,17.402,12.656
	c0,10.812-8.174,12.657-17.402,12.657h-7.911v25.576c0,8.439-1.057,17.404-12.657,17.404c-11.604,0-12.659-8.965-12.659-17.404
	v-25.576h-24.788v25.576c0,8.439-1.055,17.404-12.657,17.404c-11.604,0-12.657-8.965-12.657-17.404v-25.576h-7.912
	c-9.228,0-17.404-1.846-17.404-12.657c0-10.811,8.177-12.656,17.404-12.656h7.912V87.532h-7.912
	c-9.228,0-17.404-1.846-17.404-12.655c0-10.812,8.177-12.657,17.404-12.657h7.912V36.643c0-8.438,1.054-17.402,12.657-17.402
	c11.603,0,12.657,8.964,12.657,17.402V62.22H312.38z"/>
<rect x="287.592" y="87.532" width="24.788" height="29.269"/>
<path d="M43.336,68.72c0,3.692-1.418,7.099-8.661,7.099h-8.519c-7.241,0-8.661-3.407-8.661-7.099c0-1.42,1.136-5.253,1.705-7.525
	l8.233-33.222c1.279-4.97,2.271-8.377,8.095-8.377c6.39,0,7.808,3.834,7.808,9.513V68.72z"/>
<path d="M80.256,68.72c0,3.692-1.421,7.099-8.662,7.099h-8.519c-7.243,0-8.661-3.407-8.661-7.099c0-1.42,1.136-5.253,1.702-7.525
	l8.236-33.222c1.276-4.97,2.271-8.377,8.093-8.377c6.39,0,7.811,3.834,7.811,9.513V68.72z"/>
<path d="M119.73,26.695c0-3.692,1.421-7.099,8.662-7.099h8.521c7.241,0,8.659,3.407,8.659,7.099c0,1.42-1.136,5.253-1.702,7.525
	l-8.236,33.223c-1.277,4.969-2.272,8.376-8.093,8.376c-6.39,0-7.811-3.833-7.811-9.512V26.695z"/>
<path d="M156.649,26.695c0-3.692,1.418-7.099,8.659-7.099h8.521c7.24,0,8.661,3.407,8.661,7.099c0,1.42-1.136,5.253-1.705,7.525
	l-8.233,33.223c-1.279,4.969-2.271,8.376-8.096,8.376c-6.39,0-7.808-3.833-7.808-9.512V26.695z"/>
<path d="M-158.135,96.312c2.376,2.708,3.994,5.334,4.854,7.875c0.856,2.542,1.287,6.652,1.287,12.329v32.288
	c0,2.705,0.51,4.637,1.535,5.794c1.022,1.153,2.922,1.847,5.695,2.08c2.774,0.23,5.052,1.302,6.834,3.22
	c1.784,1.914,2.675,4.257,2.675,7.031c0,2.905-1.008,5.347-3.021,7.328c-2.016,1.98-4.573,2.97-7.678,2.97
	c-4.424,0-8.684-1.173-12.776-3.514c-4.095-2.345-7.661-6.159-10.697-11.44c-1.917-3.434-2.872-7.427-2.872-11.983v-35.754
	c0-2.838-0.463-4.786-1.388-5.843c-0.925-1.056-2.905-1.766-5.942-2.13c-3.038-0.362-5.365-1.436-6.983-3.219
	c-1.619-1.782-2.426-4.126-2.426-7.032c0-2.971,0.807-5.348,2.426-7.13c1.618-1.783,3.962-2.855,7.032-3.219
	c3.071-0.362,4.937-0.974,5.598-1.832c1.122-1.32,1.684-3.368,1.684-6.141V44.118c0-7.263,2.641-13.552,7.924-18.867
	c5.282-5.313,11.391-7.973,18.324-7.973c3.169,0,5.76,0.99,7.775,2.972c2.013,1.98,3.021,4.424,3.021,7.329
	c0,2.707-0.891,5.018-2.675,6.933c-1.782,1.915-4.095,3.005-6.934,3.268c-2.84,0.266-4.622,0.859-5.348,1.782
	c-1.188,1.388-1.783,3.435-1.783,6.141V77.99c0,4.555-0.445,8.071-1.337,10.547C-154.223,91.014-155.824,93.605-158.135,96.312z"/>
<path d="M-45.119,96.312c-2.313-2.706-3.913-5.33-4.805-7.873c-0.892-2.54-1.337-6.024-1.337-10.448V45.702
	c0-2.706-0.513-4.637-1.535-5.793c-1.024-1.154-2.922-1.864-5.695-2.13c-2.773-0.263-5.052-1.353-6.834-3.268
	c-1.783-1.915-2.676-4.226-2.676-6.933c0-2.905,1.007-5.349,3.021-7.329c2.015-1.981,4.572-2.972,7.677-2.972
	c4.423,0,8.682,1.173,12.777,3.516c4.094,2.345,7.66,6.158,10.697,11.439c1.914,3.434,2.873,7.396,2.873,11.885V77.99
	c0,2.84,0.461,4.803,1.387,5.893c0.924,1.09,2.904,1.8,5.943,2.129c3.035,0.331,5.363,1.387,6.984,3.17
	c1.615,1.782,2.424,4.159,2.424,7.13c0,2.906-0.809,5.25-2.424,7.032c-1.621,1.783-3.963,2.856-7.035,3.219
	c-3.07,0.364-4.938,0.976-5.596,1.832c-1.123,1.322-1.684,3.368-1.684,6.141v35.754c0,7.328-2.643,13.652-7.924,18.967
	c-5.283,5.313-11.392,7.971-18.324,7.971c-3.17,0-5.762-0.989-7.776-2.97c-2.015-1.981-3.021-4.423-3.021-7.328
	c0-2.708,0.893-5.019,2.676-6.935c1.782-1.916,4.093-3.004,6.933-3.268c2.838-0.265,4.622-0.859,5.349-1.782
	c1.188-1.388,1.783-3.436,1.783-6.141v-32.288c0-5.677,0.412-9.77,1.237-12.281C-49.197,101.727-47.563,99.086-45.119,96.312z"/>
<path opacity="0.97" d="M-444.125,113.103l18.739-18.658v50.311c0,4.079-0.831,7.923-2.437,11.487
	c-1.624,3.605-3.783,6.775-6.517,9.469c-2.694,2.734-5.863,4.873-9.41,6.457c-3.566,1.584-7.408,2.377-11.55,2.377H-559.69
	c-4.08,0-7.951-0.793-11.608-2.377c-3.652-1.584-6.813-3.723-9.467-6.457c-2.655-2.693-4.774-5.863-6.359-9.469
	c-1.584-3.564-2.377-7.408-2.377-11.487v-89.53c0-4.08,0.793-7.963,2.377-11.608c1.585-3.645,3.704-6.813,6.359-9.468
	c2.653-2.653,5.814-4.753,9.467-6.338c3.657-1.584,7.528-2.377,11.608-2.377h104.392c1.744,0,3.429,0.157,5.033,0.555
	l-18.145,18.184h-91.28c-3.051,0-5.654,1.07-7.813,3.249c-2.179,2.14-3.26,4.753-3.26,7.804v89.53c0,3.05,1.081,5.624,3.26,7.804
	c2.159,2.178,4.763,3.25,7.813,3.25h104.392c3.031,0,5.667-1.072,7.846-3.25c2.22-2.18,3.328-4.754,3.328-7.804V113.103z"/>
<path opacity="0.97" d="M-412.668,44.727c1.484,1.506,2.219,3.289,2.177,5.387c-0.039,2.1-0.751,3.883-2.177,5.31l-69.055,69.049
	l-9.507,9.508c-1.495,1.467-3.288,2.219-5.389,2.219c-2.11,0-3.903-0.752-5.396-2.219l-9.707-9.508l-38.163-38.386
	c-1.484-1.467-2.238-3.25-2.238-5.389c0-2.101,0.754-3.883,2.238-5.387l9.518-9.508c1.486-1.466,3.279-2.22,5.39-2.22
	c2.098,0,3.861,0.754,5.288,2.22l33.022,33.037l63.517-63.7c1.466-1.505,3.309-2.22,5.466-2.22c2.181,0.041,3.964,0.793,5.389,2.22
	L-412.668,44.727L-412.668,44.727z"/>
<g>
</g>
<g>
</g>
<g>
</g>
<g>
</g>
<g>
</g>
<g>
</g>
</svg>
